<svg viewBox="0 0 909 101" fill="none" xmlns="http://www.w3.org/2000/svg">
<path d="M44.4685 0H0V99.8019H44.4685V0Z" fill="#26305E"/>
<path d="M50.3427 0.571248C77.8929 0.571248 100.233 22.9193 100.233 50.4788C100.233 78.0383 77.8929 100.386 50.3427 100.386" fill="#4168FA"/>
<path d="M137.366 29.6564C145.957 29.6564 152.378 31.5708 156.631 35.3996C160.969 39.1433 163.138 45.0567 163.138 53.1398V99.7237H153.569L150.89 90.1517H150.38C147.403 93.8954 144.256 96.6607 140.938 98.4475C137.706 100.149 133.198 101 127.414 101C121.205 101 116.059 99.3408 111.977 96.0225C107.894 92.6191 105.853 87.3439 105.853 80.1968C105.853 73.2198 108.489 67.902 113.763 64.2433C119.036 60.5847 127.159 58.5852 138.131 58.2449L149.869 57.862V54.0332C149.869 49.0132 148.721 45.4821 146.424 43.4401C144.128 41.313 140.896 40.2494 136.728 40.2494C133.241 40.2494 129.881 40.7599 126.649 41.7809C123.417 42.802 120.312 44.0357 117.335 45.4821L112.997 35.6548C116.229 33.9531 119.929 32.5492 124.097 31.4431C128.35 30.252 132.773 29.6564 137.366 29.6564ZM140.556 66.9235C132.73 67.2639 127.287 68.5827 124.225 70.88C121.248 73.0922 119.759 76.2403 119.759 80.3244C119.759 83.8979 120.823 86.493 122.949 88.1096C125.075 89.7263 127.84 90.5346 131.242 90.5346C136.515 90.5346 140.896 89.0456 144.383 86.0676C147.955 83.0896 149.742 78.6227 149.742 72.6667V66.6683L140.556 66.9235Z" fill="#26305E"/>
<path d="M208.714 90.0241C210.5 90.0241 212.328 89.8964 214.2 89.6412C216.071 89.3008 217.687 88.8754 219.048 88.3649V98.5751C217.517 99.2558 215.518 99.8088 213.051 100.234C210.67 100.745 208.246 101 205.779 101C202.037 101 198.592 100.362 195.445 99.0856C192.298 97.8093 189.789 95.5971 187.917 92.449C186.131 89.3008 185.238 84.919 185.238 79.3034V41.2704H175.669V35.1443L185.748 30.0392L190.469 15.4897H198.762V30.9326H218.41V41.2704H198.762V79.0481C198.762 82.7918 199.655 85.5571 201.441 87.3439C203.312 89.1307 205.737 90.0241 208.714 90.0241Z" fill="#26305E"/>
<path d="M259.468 29.6564C268.059 29.6564 274.481 31.5708 278.733 35.3996C283.071 39.1433 285.24 45.0567 285.24 53.1398V99.7237H275.671L272.992 90.1517H272.482C269.505 93.8954 266.358 96.6607 263.041 98.4475C259.808 100.149 255.3 101 249.517 101C243.307 101 238.162 99.3408 234.079 96.0225C229.996 92.6191 227.955 87.3439 227.955 80.1968C227.955 73.2198 230.592 67.902 235.865 64.2433C241.139 60.5847 249.261 58.5852 260.234 58.2449L271.971 57.862V54.0332C271.971 49.0132 270.823 45.4821 268.527 43.4401C266.23 41.313 262.998 40.2494 258.83 40.2494C255.343 40.2494 251.983 40.7599 248.751 41.7809C245.519 42.802 242.414 44.0357 239.437 45.4821L235.1 35.6548C238.332 33.9531 242.032 32.5492 246.199 31.4431C250.452 30.252 254.875 29.6564 259.468 29.6564ZM262.658 66.9235C254.833 67.2639 249.389 68.5827 246.327 70.88C243.35 73.0922 241.862 76.2403 241.862 80.3244C241.862 83.8979 242.925 86.493 245.051 88.1096C247.178 89.7263 249.942 90.5346 253.344 90.5346C258.618 90.5346 262.998 89.0456 266.485 86.0676C270.058 83.0896 271.844 78.6227 271.844 72.6667V66.6683L262.658 66.9235Z" fill="#26305E"/>
<path d="M346.509 19.1909C337.408 19.1909 330.305 22.3391 325.202 28.6353C320.099 34.8465 317.547 43.3976 317.547 54.2884C317.547 65.0942 319.929 73.6027 324.692 79.8139C329.455 86.0251 336.685 89.1307 346.381 89.1307C350.294 89.1307 354.036 88.7903 357.608 88.1096C361.266 87.3439 364.966 86.3654 368.708 85.1742V97.0436C365.136 98.4049 361.478 99.3834 357.736 99.979C354.079 100.66 349.741 101 344.722 101C335.366 101 327.626 99.0856 321.502 95.2568C315.378 91.3429 310.785 85.8974 307.723 78.9205C304.661 71.8584 303.13 63.6052 303.13 54.1608C303.13 44.9716 304.788 36.846 308.106 29.784C311.508 22.7219 316.441 17.234 322.905 13.3201C329.37 9.32108 337.28 7.32159 346.636 7.32159C351.229 7.32159 355.695 7.8321 360.033 8.85312C364.455 9.78905 368.496 11.1504 372.153 12.9372L367.05 24.4236C364.073 23.0623 360.841 21.8711 357.353 20.8501C353.951 19.744 350.336 19.1909 346.509 19.1909Z" fill="#4168FA"/>
<path d="M447.404 65.2644C447.404 76.6657 444.469 85.472 438.601 91.6832C432.732 97.8944 424.821 101 414.87 101C408.661 101 403.132 99.5961 398.284 96.7883C393.521 93.9805 389.736 89.939 386.929 84.6637C384.207 79.3034 382.846 72.8369 382.846 65.2644C382.846 53.863 385.738 45.0993 391.522 38.9731C397.306 32.762 405.216 29.6564 415.253 29.6564C421.547 29.6564 427.075 31.0603 431.839 33.8681C436.687 36.5908 440.472 40.5898 443.194 45.865C446 51.1403 447.404 57.6067 447.404 65.2644ZM396.753 65.2644C396.753 73.0071 398.199 79.0481 401.091 83.3874C404.068 87.7268 408.746 89.8964 415.125 89.8964C421.504 89.8964 426.14 87.7268 429.032 83.3874C432.009 79.0481 433.497 73.0071 433.497 65.2644C433.497 57.4366 432.009 51.4381 429.032 47.2689C426.055 43.0147 421.377 40.8876 414.997 40.8876C408.618 40.8876 403.983 43.0147 401.091 47.2689C398.199 51.4381 396.753 57.4366 396.753 65.2644Z" fill="#4168FA"/>
<path d="M499.379 29.6564C507.374 29.6564 513.498 31.6559 517.751 35.6548C522.003 39.6538 524.13 46.0777 524.13 54.9266V99.7237H510.734V56.841C510.734 46.1203 506.013 40.7599 496.572 40.7599C489.512 40.7599 484.664 42.8445 482.027 47.0137C479.39 51.1828 478.072 57.1813 478.072 65.0091V99.7237H464.548V30.9326H475.265L477.179 40.1218H477.944C480.156 36.5482 483.175 33.9106 487.003 32.2089C490.915 30.5072 495.041 29.6564 499.379 29.6564Z" fill="#4168FA"/>
<path d="M579.742 29.6564C587.737 29.6564 593.861 31.6559 598.114 35.6548C602.367 39.6538 604.493 46.0777 604.493 54.9266V99.7237H591.097V56.841C591.097 46.1203 586.376 40.7599 576.935 40.7599C569.875 40.7599 565.027 42.8445 562.39 47.0137C559.753 51.1828 558.435 57.1813 558.435 65.0091V99.7237H544.911V30.9326H555.628L557.542 40.1218H558.308C560.519 36.5482 563.539 33.9106 567.366 32.2089C571.279 30.5072 575.404 29.6564 579.742 29.6564Z" fill="#4168FA"/>
<path d="M652.322 29.6564C661.338 29.6564 668.44 32.4642 673.629 38.0798C678.817 43.6103 681.411 51.1828 681.411 60.7974V68.1998H635.226C635.396 75.2618 637.225 80.6647 640.712 84.4085C644.284 88.1522 649.26 90.0241 655.639 90.0241C660.062 90.0241 663.975 89.6412 667.377 88.8754C670.865 88.0246 674.437 86.7908 678.094 85.1742V96.4054C674.607 97.9369 671.12 99.0856 667.632 99.8514C664.145 100.617 659.977 101 655.129 101C648.41 101 642.498 99.6812 637.395 97.0436C632.377 94.4059 628.421 90.492 625.53 85.3018C622.723 80.0266 621.319 73.5601 621.319 65.9025C621.319 58.1598 622.595 51.6082 625.147 46.2479C627.784 40.8876 631.398 36.8035 635.991 33.9957C640.67 31.1028 646.113 29.6564 652.322 29.6564ZM652.322 40.1218C647.474 40.1218 643.561 41.6959 640.584 44.844C637.693 47.9921 635.991 52.4591 635.481 58.2449H667.888C667.802 52.8845 666.484 48.5452 663.932 45.2269C661.466 41.8235 657.596 40.1218 652.322 40.1218Z" fill="#4168FA"/>
<path d="M725.972 101C716.446 101 708.791 98.1922 703.007 92.5766C697.223 86.8759 694.331 77.942 694.331 65.7749C694.331 57.2664 695.735 50.3745 698.542 45.0993C701.348 39.824 705.219 35.9526 710.152 33.4852C715.085 30.9326 720.699 29.6564 726.993 29.6564C730.82 29.6564 734.393 30.0818 737.71 30.9326C741.112 31.6984 743.919 32.5918 746.131 33.6128L742.048 44.5888C739.666 43.6528 737.115 42.8445 734.393 42.1638C731.756 41.4832 729.247 41.1428 726.865 41.1428C714.447 41.1428 708.238 49.311 708.238 65.6472C708.238 73.4751 709.769 79.431 712.831 83.5151C715.893 87.5991 720.401 89.6412 726.355 89.6412C730.183 89.6412 733.542 89.2157 736.434 88.3649C739.411 87.5141 742.133 86.4079 744.6 85.0466V96.7883C742.133 98.2347 739.454 99.2983 736.562 99.979C733.67 100.66 730.14 101 725.972 101Z" fill="#4168FA"/>
<path d="M785.584 90.0241C787.37 90.0241 789.199 89.8964 791.07 89.6412C792.941 89.3008 794.557 88.8754 795.918 88.3649V98.5751C794.387 99.2558 792.389 99.8088 789.922 100.234C787.54 100.745 785.116 101 782.65 101C778.907 101 775.462 100.362 772.315 99.0856C769.168 97.8093 766.659 95.5971 764.788 92.449C763.002 89.3008 762.109 84.919 762.109 79.3034V41.2704H752.54V35.1443L762.619 30.0392L767.34 15.4897H775.633V30.9326H795.28V41.2704H775.633V79.0481C775.633 82.7918 776.526 85.5571 778.312 87.3439C780.183 89.1307 782.607 90.0241 785.584 90.0241Z" fill="#4168FA"/>
<path d="M839.273 99.7237H803.932V91.8108L814.777 88.6202V19.8291L803.932 16.5108V8.59786H839.273V16.5108L828.556 19.8291V88.6202L839.273 91.8108V99.7237Z" fill="#26305E"/>
<path d="M856.308 99.7237V8.59786H870.087V87.8544H909V99.7237H856.308Z" fill="#26305E"/>
</svg>
